<svg width="165" height="165" viewBox="0 0 165 165" fill="none" xmlns="http://www.w3.org/2000/svg">
<g clip-path="url(#clip0_17_239)">
<path fill-rule="evenodd" clip-rule="evenodd" d="M48.6467 116.238C53.7562 103.664 63.7849 94.0836 75.9282 87.0853C94.2673 76.5168 117.432 71.8309 135.992 71.6986C147.658 71.6143 155.578 75.4568 166.931 77.88C167.391 77.978 167.843 77.685 167.941 77.2251C168.04 76.7673 167.746 76.313 167.287 76.2171C155.801 73.7654 147.781 69.9122 135.98 69.9967C117.16 70.131 93.6753 74.8953 75.0785 85.6112C62.6001 92.8023 52.3215 102.675 47.0701 115.597C46.8931 116.032 47.1012 116.528 47.5365 116.705C47.9718 116.882 48.4696 116.673 48.6467 116.238Z" fill="white"/>
<path d="M42 94.0001L46.5 116H68" stroke="white" stroke-width="2"/>
</g>
<defs>
<clipPath id="clip0_17_239">
<rect width="130" height="130" fill="white" transform="translate(123.284) rotate(71.5029)"/>
</clipPath>
</defs>
</svg>
