<svg width="202" height="30" viewBox="0 0 202 30" fill="none" xmlns="http://www.w3.org/2000/svg">
<path d="M9.375 25.5938C8.02083 25.5938 6.75521 25.4271 5.57812 25.0938C4.41146 24.7604 3.42188 24.3646 2.60938 23.9062L1.53125 25H0.203125L0 16.9844H1.34375C1.64583 17.7448 2.03125 18.5469 2.5 19.3906C2.96875 20.2344 3.51042 20.9896 4.125 21.6562C4.76042 22.3542 5.46875 22.9219 6.25 23.3594C7.04167 23.7969 7.96354 24.0156 9.01562 24.0156C10.4323 24.0156 11.5156 23.6719 12.2656 22.9844C13.026 22.2865 13.4062 21.4115 13.4062 20.3594C13.4062 19.4948 13.0833 18.7708 12.4375 18.1875C11.8021 17.5938 10.8125 17.0833 9.46875 16.6562C8.59375 16.375 7.78646 16.1146 7.04688 15.875C6.31771 15.6354 5.63021 15.3906 4.98438 15.1406C3.49479 14.5469 2.38542 13.6979 1.65625 12.5938C0.9375 11.4896 0.578125 10.2552 0.578125 8.89062C0.578125 8.02604 0.765625 7.19792 1.14062 6.40625C1.51562 5.60417 2.0625 4.88542 2.78125 4.25C3.46875 3.65625 4.34896 3.17188 5.42188 2.79688C6.49479 2.42188 7.66146 2.23438 8.92188 2.23438C10.151 2.23438 11.3021 2.40625 12.375 2.75C13.4479 3.08333 14.2917 3.42188 14.9062 3.76562L15.8594 2.82812H17.2188L17.3438 10.3906H16C15.6875 9.57812 15.3177 8.75 14.8906 7.90625C14.474 7.05208 14.0312 6.34375 13.5625 5.78125C13.0521 5.17708 12.4635 4.69792 11.7969 4.34375C11.1302 3.97917 10.349 3.79688 9.45312 3.79688C8.32812 3.79688 7.40625 4.11458 6.6875 4.75C5.97917 5.38542 5.625 6.17188 5.625 7.10938C5.625 7.99479 5.93229 8.71875 6.54688 9.28125C7.17188 9.84375 8.14062 10.3385 9.45312 10.7656C10.224 11.026 11.0104 11.2865 11.8125 11.5469C12.6146 11.8073 13.3281 12.0573 13.9531 12.2969C15.4635 12.8802 16.6094 13.6875 17.3906 14.7188C18.1823 15.7396 18.5781 17.0104 18.5781 18.5312C18.5781 19.4896 18.3542 20.4167 17.9062 21.3125C17.4583 22.2083 16.8542 22.9531 16.0938 23.5469C15.2604 24.2031 14.2969 24.7083 13.2031 25.0625C12.1094 25.4167 10.8333 25.5938 9.375 25.5938ZM42.3344 25H34.975C34.0688 23.4062 33.2406 22.0573 32.4906 20.9531C31.7406 19.8385 31.0323 18.8073 30.3656 17.8594L29.4281 18.6562V22.0625C29.4281 22.4375 29.4802 22.7448 29.5844 22.9844C29.699 23.224 29.9125 23.401 30.225 23.5156C30.4125 23.599 30.6313 23.6719 30.8813 23.7344C31.1313 23.7969 31.3813 23.8385 31.6313 23.8594V25H21.9594V23.8594C22.2198 23.8385 22.4802 23.8125 22.7406 23.7812C23.001 23.7396 23.2302 23.6875 23.4281 23.625C23.7615 23.5104 23.9854 23.3333 24.1 23.0938C24.225 22.8542 24.2875 22.5417 24.2875 22.1562V4.73438C24.2875 4.39062 24.2094 4.03646 24.0531 3.67188C23.9073 3.29688 23.6885 3.01562 23.3969 2.82812C23.199 2.70312 22.9021 2.59896 22.5063 2.51562C22.1104 2.43229 21.751 2.38021 21.4281 2.35938V1.21875L29.1938 0.8125L29.4281 1.0625V17.1875C30.199 16.5 31.0635 15.7031 32.0219 14.7969C32.9906 13.8906 33.7667 13.1406 34.35 12.5469C34.6938 12.1927 34.8813 11.9271 34.9125 11.75C34.9542 11.5625 34.975 11.4479 34.975 11.4062C34.975 11.2188 34.8083 11.0625 34.475 10.9375C34.1521 10.8125 33.6625 10.7031 33.0063 10.6094V9.5H40.9438V10.5781C39.9021 10.8698 39.1052 11.1458 38.5531 11.4062C38.0115 11.6562 37.4177 11.9948 36.7719 12.4219C36.3448 12.7031 35.9281 13 35.5219 13.3125C35.126 13.6146 34.6677 13.9948 34.1469 14.4531C35.1677 15.9323 36.1104 17.3021 36.975 18.5625C37.8396 19.8229 38.7458 21.1562 39.6938 22.5625C40.0167 23.0521 40.4177 23.3802 40.8969 23.5469C41.376 23.7135 41.8552 23.8177 42.3344 23.8594V25ZM53.9813 25H44.1063V23.8594C44.3771 23.8385 44.6427 23.8125 44.9031 23.7812C45.1635 23.75 45.3875 23.6979 45.575 23.625C45.9083 23.5 46.1427 23.3229 46.2781 23.0938C46.4135 22.8542 46.4813 22.5417 46.4813 22.1562V13.0625C46.4813 12.6979 46.3979 12.3802 46.2313 12.1094C46.0646 11.8281 45.8563 11.6042 45.6063 11.4375C45.4188 11.3125 45.1323 11.1927 44.7469 11.0781C44.3719 10.9635 44.0281 10.8906 43.7156 10.8594V9.71875L51.3719 9.3125L51.6063 9.54688V21.9531C51.6063 22.3177 51.6844 22.6302 51.8406 22.8906C51.9969 23.1406 52.2208 23.3281 52.5125 23.4531C52.7208 23.5469 52.95 23.6302 53.2 23.7031C53.45 23.776 53.7104 23.8281 53.9813 23.8594V25ZM51.7 3.6875C51.7 4.47917 51.3927 5.15625 50.7781 5.71875C50.174 6.27083 49.4552 6.54688 48.6219 6.54688C47.7781 6.54688 47.049 6.27083 46.4344 5.71875C45.8302 5.15625 45.5281 4.47917 45.5281 3.6875C45.5281 2.89583 45.8302 2.21875 46.4344 1.65625C47.049 1.09375 47.7781 0.8125 48.6219 0.8125C49.4656 0.8125 50.1896 1.09375 50.7938 1.65625C51.3979 2.21875 51.7 2.89583 51.7 3.6875ZM66.5344 25H56.7375V23.8594C57.0083 23.8385 57.2687 23.8125 57.5187 23.7812C57.7792 23.75 58.0083 23.6979 58.2062 23.625C58.5396 23.5 58.7635 23.3229 58.8781 23.0938C59.0031 22.8542 59.0656 22.5417 59.0656 22.1562V4.84375C59.0656 4.44792 58.9823 4.08333 58.8156 3.75C58.6594 3.40625 58.4458 3.14583 58.175 2.96875C57.9667 2.83333 57.649 2.70312 57.2219 2.57812C56.8052 2.45312 56.4354 2.38021 56.1125 2.35938V1.21875L63.9719 0.8125L64.2062 1.0625V21.9531C64.2062 22.3385 64.274 22.651 64.4094 22.8906C64.5448 23.1302 64.7635 23.3177 65.0656 23.4531C65.274 23.5469 65.4927 23.6302 65.7219 23.7031C65.951 23.776 66.2219 23.8281 66.5344 23.8594V25ZM79.1656 25H69.3688V23.8594C69.6396 23.8385 69.9 23.8125 70.15 23.7812C70.4104 23.75 70.6396 23.6979 70.8375 23.625C71.1708 23.5 71.3948 23.3229 71.5094 23.0938C71.6344 22.8542 71.6969 22.5417 71.6969 22.1562V4.84375C71.6969 4.44792 71.6135 4.08333 71.4469 3.75C71.2906 3.40625 71.0771 3.14583 70.8063 2.96875C70.5979 2.83333 70.2802 2.70312 69.8531 2.57812C69.4365 2.45312 69.0667 2.38021 68.7438 2.35938V1.21875L76.6031 0.8125L76.8375 1.0625V21.9531C76.8375 22.3385 76.9052 22.651 77.0406 22.8906C77.176 23.1302 77.3948 23.3177 77.6969 23.4531C77.9052 23.5469 78.124 23.6302 78.3531 23.7031C78.5823 23.776 78.8531 23.8281 79.1656 23.8594V25ZM107.984 4.04688C107.682 4.07812 107.245 4.15104 106.672 4.26562C106.109 4.36979 105.635 4.55729 105.25 4.82812C104.854 5.08854 104.573 5.55729 104.406 6.23438C104.25 6.91146 104.172 7.92708 104.172 9.28125V17.5312C104.172 19.9583 103.349 21.9115 101.703 23.3906C100.057 24.8698 97.8802 25.6094 95.1719 25.6094C92.0156 25.6094 89.5729 24.8958 87.8438 23.4688C86.1146 22.0417 85.25 20.0521 85.25 17.5V6.15625C85.25 5.79167 85.1771 5.47917 85.0312 5.21875C84.8958 4.95833 84.6302 4.72396 84.2344 4.51562C83.9635 4.38021 83.6302 4.27083 83.2344 4.1875C82.8385 4.10417 82.5156 4.04688 82.2656 4.01562V2.82812H93.8906V4.01562C93.5573 4.03646 93.2188 4.07812 92.875 4.14062C92.5312 4.19271 92.1823 4.27604 91.8281 4.39062C91.4323 4.51562 91.1667 4.72396 91.0312 5.01562C90.8958 5.30729 90.8281 5.63542 90.8281 6V17.1875C90.8281 19.3854 91.3125 20.9844 92.2812 21.9844C93.25 22.9844 94.6562 23.4844 96.5 23.4844C98.3125 23.4844 99.7344 22.9323 100.766 21.8281C101.797 20.724 102.312 19.099 102.312 16.9531V9.4375C102.312 8.10417 102.219 7.10938 102.031 6.45312C101.854 5.78646 101.578 5.30729 101.203 5.01562C100.932 4.78646 100.458 4.57812 99.7812 4.39062C99.1146 4.20312 98.6458 4.08854 98.375 4.04688V2.82812H107.984V4.04688ZM131.194 25H121.787V23.8594C121.985 23.8385 122.225 23.8125 122.506 23.7812C122.787 23.75 123.001 23.6979 123.147 23.625C123.366 23.5104 123.522 23.3438 123.616 23.125C123.709 22.9062 123.756 22.5833 123.756 22.1562V14.8438C123.756 13.7812 123.558 12.9844 123.162 12.4531C122.777 11.9115 122.204 11.6406 121.444 11.6406C121.027 11.6406 120.636 11.7031 120.272 11.8281C119.918 11.9531 119.569 12.1354 119.225 12.375C118.923 12.5833 118.678 12.7969 118.491 13.0156C118.314 13.2344 118.162 13.4271 118.037 13.5938V21.9844C118.037 22.349 118.09 22.6562 118.194 22.9062C118.298 23.1458 118.47 23.3281 118.709 23.4531C118.876 23.5469 119.084 23.6302 119.334 23.7031C119.584 23.776 119.829 23.8281 120.069 23.8594V25H110.569V23.8594C110.829 23.8385 111.09 23.8125 111.35 23.7812C111.621 23.7396 111.85 23.6875 112.037 23.625C112.371 23.5104 112.6 23.3333 112.725 23.0938C112.85 22.8542 112.912 22.5417 112.912 22.1562V13.0625C112.912 12.7396 112.829 12.4219 112.662 12.1094C112.496 11.7969 112.277 11.5417 112.006 11.3438C111.819 11.2188 111.579 11.1146 111.287 11.0312C111.006 10.9479 110.694 10.8906 110.35 10.8594V9.71875L117.803 9.3125L118.037 9.54688V11.8125H118.1C118.392 11.5521 118.746 11.2396 119.162 10.875C119.579 10.5104 119.965 10.2135 120.319 9.98438C120.704 9.73438 121.209 9.52083 121.834 9.34375C122.459 9.16667 123.126 9.07812 123.834 9.07812C125.532 9.07812 126.803 9.5625 127.647 10.5312C128.501 11.4896 128.928 12.7656 128.928 14.3594V22.0156C128.928 22.401 128.985 22.7083 129.1 22.9375C129.215 23.1667 129.428 23.349 129.741 23.4844C129.907 23.5573 130.11 23.6302 130.35 23.7031C130.6 23.776 130.881 23.8281 131.194 23.8594V25ZM144.137 25H134.262V23.8594C134.533 23.8385 134.799 23.8125 135.059 23.7812C135.32 23.75 135.544 23.6979 135.731 23.625C136.065 23.5 136.299 23.3229 136.434 23.0938C136.57 22.8542 136.637 22.5417 136.637 22.1562V13.0625C136.637 12.6979 136.554 12.3802 136.387 12.1094C136.221 11.8281 136.012 11.6042 135.762 11.4375C135.575 11.3125 135.289 11.1927 134.903 11.0781C134.528 10.9635 134.184 10.8906 133.872 10.8594V9.71875L141.528 9.3125L141.762 9.54688V21.9531C141.762 22.3177 141.841 22.6302 141.997 22.8906C142.153 23.1406 142.377 23.3281 142.669 23.4531C142.877 23.5469 143.106 23.6302 143.356 23.7031C143.606 23.776 143.867 23.8281 144.137 23.8594V25ZM141.856 3.6875C141.856 4.47917 141.549 5.15625 140.934 5.71875C140.33 6.27083 139.611 6.54688 138.778 6.54688C137.934 6.54688 137.205 6.27083 136.591 5.71875C135.986 5.15625 135.684 4.47917 135.684 3.6875C135.684 2.89583 135.986 2.21875 136.591 1.65625C137.205 1.09375 137.934 0.8125 138.778 0.8125C139.622 0.8125 140.346 1.09375 140.95 1.65625C141.554 2.21875 141.856 2.89583 141.856 3.6875ZM158.8 24.2812C158.133 24.5729 157.42 24.8333 156.659 25.0625C155.899 25.3021 154.972 25.4219 153.878 25.4219C152.253 25.4219 151.045 25.026 150.253 24.2344C149.472 23.4427 149.081 22.3125 149.081 20.8438V11.25H146.269V9.5625H149.144V4.82812H154.222V9.5625H158.597V11.25H154.253V19.8125C154.253 21.0312 154.42 21.8958 154.753 22.4062C155.097 22.9167 155.706 23.1719 156.581 23.1719C156.863 23.1719 157.253 23.151 157.753 23.1094C158.253 23.0677 158.602 23.0208 158.8 22.9688V24.2812ZM168.728 25.5312C167.718 25.5312 166.728 25.3802 165.759 25.0781C164.801 24.7865 164.056 24.474 163.525 24.1406L163.056 25.2031H161.837L161.634 19.375H162.775C162.931 19.8438 163.192 20.375 163.556 20.9688C163.921 21.5521 164.337 22.0781 164.806 22.5469C165.296 23.0156 165.853 23.4115 166.478 23.7344C167.114 24.0573 167.791 24.2188 168.509 24.2188C169.457 24.2188 170.16 24.0365 170.619 23.6719C171.087 23.2969 171.322 22.724 171.322 21.9531C171.322 21.5365 171.218 21.1927 171.009 20.9219C170.801 20.651 170.515 20.4167 170.15 20.2188C169.744 20.0104 169.296 19.8333 168.806 19.6875C168.327 19.5417 167.733 19.3646 167.025 19.1562C166.317 18.9479 165.707 18.7396 165.197 18.5312C164.697 18.3125 164.176 17.974 163.634 17.5156C163.166 17.1094 162.791 16.6198 162.509 16.0469C162.228 15.474 162.087 14.7917 162.087 14C162.087 12.5312 162.702 11.3438 163.931 10.4375C165.171 9.53125 166.791 9.07812 168.791 9.07812C169.739 9.07812 170.608 9.17708 171.4 9.375C172.202 9.5625 172.874 9.77083 173.416 10L173.744 9.07812H174.931L175.181 14.4062H174.072C173.707 13.3229 173.082 12.3906 172.197 11.6094C171.311 10.8177 170.358 10.4219 169.337 10.4219C168.535 10.4219 167.905 10.5885 167.447 10.9219C166.989 11.2552 166.759 11.7188 166.759 12.3125C166.759 13.1042 167.093 13.6771 167.759 14.0312C168.436 14.3854 169.379 14.7188 170.587 15.0312C172.452 15.5104 173.817 16.1667 174.681 17C175.546 17.8229 175.978 18.875 175.978 20.1562C175.978 21.8646 175.306 23.1875 173.962 24.125C172.629 25.0625 170.884 25.5312 168.728 25.5312ZM201.172 29.7188H178.516V27.8125H201.172V29.7188Z" fill="white"/>
</svg>
